<?xml version="1.0" standalone="no"?>
<!DOCTYPE svg PUBLIC "-//W3C//DTD SVG 20010904//EN"
 "http://www.w3.org/TR/2001/REC-SVG-20010904/DTD/svg10.dtd">
<svg version="1.0" xmlns="http://www.w3.org/2000/svg"
 width="2229.000000pt" height="642.000000pt" viewBox="0 0 2229.000000 642.000000"
 preserveAspectRatio="xMidYMid meet">

<g transform="translate(0.000000,642.000000) scale(0.100000,-0.100000)"
fill="#FFFDF8" stroke="none">
<path d="M11976 6285 c-296 -61 -549 -240 -704 -498 -247 -409 -240 -974 16
-1510 57 -119 64 -140 50 -148 -52 -29 -149 -113 -235 -203 l-99 -104 -62 123
c-173 343 -417 560 -676 606 -89 15 -223 7 -306 -20 -311 -99 -530 -461 -530
-875 0 -368 163 -734 462 -1040 48 -49 87 -91 85 -92 -3 -4 -300 43 -447 71
-420 80 -826 179 -1805 440 -1988 531 -2736 672 -3665 691 -798 17 -1538 -86
-2200 -306 -940 -312 -1559 -816 -1777 -1447 l-38 -108 0 -380 0 -380 28 -85
c61 -180 142 -316 262 -436 420 -421 1047 -290 1228 258 27 83 30 107 31 218
1 142 -19 230 -78 348 -72 143 -158 231 -282 289 -51 24 -72 28 -154 28 -86 0
-101 -3 -162 -32 -90 -42 -160 -110 -201 -192 -29 -60 -32 -74 -31 -156 0 -64
6 -104 20 -139 22 -57 31 -62 61 -38 22 17 22 18 6 62 -24 65 -22 173 4 232
73 163 276 240 437 165 130 -60 230 -192 287 -377 29 -95 31 -252 5 -350 -51
-190 -182 -356 -342 -434 -93 -46 -165 -59 -294 -54 -101 4 -126 9 -205 39
-283 108 -477 359 -557 719 -20 92 -23 132 -23 315 0 235 10 302 72 479 267
769 1206 1358 2533 1591 414 72 742 99 1225 99 984 0 1725 -135 3815 -694
1206 -323 1662 -427 2165 -497 l200 -27 137 -103 c681 -512 1443 -1297 1781
-1836 l54 -86 -19 -83 c-14 -57 -19 -107 -16 -161 3 -72 6 -81 31 -103 57 -49
143 -22 167 51 15 46 1 112 -46 223 -42 96 -43 86 26 258 93 233 256 538 413
774 175 262 281 390 772 930 250 276 472 523 489 547 0 0 84 11 186 22 333 38
685 98 1445 246 761 149 827 162 1200 230 751 137 1071 169 1660 169 454 1
787 -25 1170 -90 1232 -207 2148 -719 2500 -1396 113 -218 154 -379 162 -633
4 -153 2 -198 -15 -300 -26 -148 -59 -252 -119 -368 -148 -287 -404 -457 -687
-457 -166 0 -301 55 -417 170 -247 247 -273 628 -63 906 106 139 252 199 389
160 184 -54 281 -223 226 -396 l-21 -65 23 -17 c30 -24 39 -19 61 38 14 35 20
75 20 139 1 83 -2 96 -32 157 -37 76 -114 153 -186 187 -185 86 -398 26 -532
-152 -164 -219 -205 -478 -113 -730 39 -109 92 -190 179 -277 130 -131 281
-192 470 -192 118 0 207 21 325 77 197 92 333 234 440 458 25 51 56 133 70
183 l26 91 -3 359 -3 359 -38 108 c-111 321 -324 609 -637 858 -606 483 -1535
792 -2655 881 -208 17 -870 17 -1085 0 -489 -38 -839 -95 -2155 -353 -877
-172 -1335 -250 -1654 -285 l-65 -6 32 38 c637 765 916 1265 938 1684 12 233
-62 428 -224 582 -281 268 -667 299 -1110 88 -130 -62 -246 -132 -354 -214
l-85 -64 -6 162 c-13 362 -97 613 -275 824 -88 104 -259 206 -412 247 -89 24
-387 30 -484 10z m483 -84 c326 -95 520 -344 598 -766 11 -62 17 -147 17 -275
l0 -185 -73 -75 c-152 -155 -236 -293 -236 -388 0 -48 3 -57 33 -83 83 -74
186 -7 258 171 28 69 74 256 74 302 0 72 396 330 640 416 144 50 232 66 370
66 143 0 216 -16 324 -70 292 -147 433 -422 382 -750 -58 -384 -324 -843 -863
-1491 l-126 -151 -85 -8 c-148 -12 -573 3 -697 24 -213 38 -375 88 -553 173
l-124 58 27 43 c86 138 128 280 129 428 0 171 -50 313 -156 438 -92 108 -197
175 -335 213 -156 43 -383 13 -572 -77 -41 -19 -75 -33 -76 -32 -2 2 -25 48
-53 103 -87 176 -148 361 -183 565 -22 123 -17 394 10 518 97 455 385 760 801
848 101 21 374 12 469 -15z m591 -1363 c0 -20 -55 -198 -73 -239 -28 -65 -82
-129 -107 -129 -47 0 -48 54 -5 140 43 83 185 259 185 228z m-2720 -377 c36
-11 94 -37 130 -58 84 -49 252 -215 320 -317 50 -75 170 -309 170 -332 0 -7
-20 -49 -44 -95 -113 -213 -119 -379 -17 -446 23 -15 49 -23 78 -23 38 0 51 6
78 33 19 19 38 52 45 78 18 63 7 195 -25 326 l-28 112 42 55 c52 67 188 198
258 248 l52 37 65 -97 c194 -290 493 -596 758 -775 43 -29 77 -55 78 -59 0
-18 -174 -182 -272 -254 -294 -218 -638 -346 -1063 -396 -129 -15 -616 -16
-747 -1 -101 12 -119 23 -266 172 -299 301 -458 681 -439 1046 21 385 227 685
522 762 71 18 224 10 305 -16z m1757 -251 c165 -58 309 -203 363 -366 48 -144
45 -285 -10 -436 -35 -97 -97 -201 -113 -191 -222 130 -523 412 -724 678 -69
91 -143 204 -143 217 0 22 199 98 308 118 82 15 250 5 319 -20z m-1071 -694
c18 -103 14 -194 -10 -231 -21 -32 -60 -32 -91 0 -46 45 -30 177 38 310 28 56
30 58 39 36 5 -13 16 -65 24 -115z m1465 -465 c323 -155 615 -214 1062 -214
l238 1 -18 -22 c-71 -80 -213 -238 -429 -476 -491 -540 -587 -656 -759 -915
-179 -270 -326 -543 -425 -788 -27 -65 -50 -120 -53 -123 -2 -3 -30 33 -61 80
-355 534 -1137 1337 -1718 1764 -43 31 -77 59 -78 62 0 3 44 2 98 -3 161 -14
556 -1 717 23 507 77 910 268 1205 571 52 54 96 98 96 98 1 1 57 -26 125 -58z
m-339 -2798 c25 -75 29 -102 18 -123 -13 -24 -45 -26 -54 -4 -13 33 -2 174 13
174 4 0 14 -21 23 -47z"/>
</g>
</svg>
